<svg width="297" height="42" viewBox="0 0 297 42" fill="none" xmlns="http://www.w3.org/2000/svg">
<circle cx="66" cy="21" r="20.5" fill="white" stroke="#01CD7D"/>
<circle cx="111" cy="21" r="20.5" fill="white" stroke="#C0C9D7"/>
<circle cx="186" cy="21" r="20.5" fill="white" stroke="#C0C9D7"/>
<circle cx="231" cy="21" r="20.5" fill="white" stroke="#C0C9D7"/>
<circle cx="276" cy="21" r="20.5" fill="white" stroke="#C0C9D7"/>
<circle cx="21" cy="21" r="20.5" fill="white" stroke="#C0C9D7"/>
<path d="M64.2008 17.856L63.5288 16.816L66.2168 14.736H67.1128V26H65.8328V16.576L64.2008 17.856Z" fill="#01CD7D"/>
<path d="M114.333 26H107.501V24.96C108.952 23.5413 110.019 22.4107 110.701 21.568C111.907 20.0533 112.509 18.784 112.509 17.76C112.509 17.2267 112.344 16.7947 112.013 16.464C111.693 16.1227 111.251 15.952 110.685 15.952C110.195 15.952 109.763 16.112 109.389 16.432C109.027 16.7413 108.792 17.1787 108.685 17.744L107.597 17.296C107.725 16.496 108.083 15.8613 108.669 15.392C109.267 14.912 109.976 14.672 110.797 14.672C111.779 14.672 112.536 14.9547 113.069 15.52C113.603 16.0853 113.869 16.7467 113.869 17.504C113.869 18.944 113.181 20.4747 111.805 22.096C111.187 22.8213 110.691 23.3653 110.317 23.728C109.997 24.048 109.613 24.4053 109.165 24.8H114.333V26Z" fill="#C0C9D7"/>
<path d="M185.075 26H178.243V24.96C179.694 23.5413 180.761 22.4107 181.443 21.568C182.649 20.0533 183.251 18.784 183.251 17.76C183.251 17.2267 183.086 16.7947 182.755 16.464C182.435 16.1227 181.993 15.952 181.427 15.952C180.937 15.952 180.505 16.112 180.131 16.432C179.769 16.7413 179.534 17.1787 179.427 17.744L178.339 17.296C178.467 16.496 178.825 15.8613 179.411 15.392C180.009 14.912 180.718 14.672 181.539 14.672C182.521 14.672 183.278 14.9547 183.811 15.52C184.345 16.0853 184.611 16.7467 184.611 17.504C184.611 18.944 183.923 20.4747 182.547 22.096C181.929 22.8213 181.433 23.3653 181.059 23.728C180.739 24.048 180.355 24.4053 179.907 24.8H185.075V26ZM189.913 26.16C189.124 26.16 188.43 25.9947 187.833 25.664C187.246 25.3333 186.809 24.8587 186.521 24.24L187.257 23.328C187.513 23.8187 187.876 24.2027 188.345 24.48C188.814 24.7467 189.321 24.88 189.865 24.88C190.537 24.88 191.07 24.6933 191.465 24.32C191.87 23.9467 192.073 23.4613 192.073 22.864C192.073 22.2667 191.86 21.792 191.433 21.44C191.017 21.088 190.468 20.912 189.785 20.912H188.905V19.632H189.705C190.228 19.632 190.676 19.4507 191.049 19.088C191.444 18.7253 191.641 18.2613 191.641 17.696C191.641 17.1413 191.476 16.7093 191.145 16.4C190.825 16.08 190.382 15.92 189.817 15.92C188.804 15.92 188.036 16.384 187.513 17.312L186.793 16.432C187.049 15.8667 187.449 15.4293 187.993 15.12C188.548 14.8 189.188 14.64 189.913 14.64C190.852 14.64 191.598 14.896 192.153 15.408C192.718 15.92 193.001 16.608 193.001 17.472C193.001 18.0907 192.852 18.6347 192.553 19.104C192.254 19.5733 191.822 19.9253 191.257 20.16V20.208C191.918 20.3147 192.446 20.6187 192.841 21.12C193.236 21.6213 193.433 22.2187 193.433 22.912C193.433 23.8933 193.102 24.6827 192.441 25.28C191.79 25.8667 190.948 26.16 189.913 26.16Z" fill="#C0C9D7"/>
<path d="M229.935 26H223.103V24.96C224.553 23.5413 225.62 22.4107 226.303 21.568C227.508 20.0533 228.111 18.784 228.111 17.76C228.111 17.2267 227.945 16.7947 227.615 16.464C227.295 16.1227 226.852 15.952 226.287 15.952C225.796 15.952 225.364 16.112 224.991 16.432C224.628 16.7413 224.393 17.1787 224.287 17.744L223.199 17.296C223.327 16.496 223.684 15.8613 224.271 15.392C224.868 14.912 225.577 14.672 226.399 14.672C227.38 14.672 228.137 14.9547 228.671 15.52C229.204 16.0853 229.471 16.7467 229.471 17.504C229.471 18.944 228.783 20.4747 227.407 22.096C226.788 22.8213 226.292 23.3653 225.919 23.728C225.599 24.048 225.215 24.4053 224.767 24.8H229.935V26ZM237.588 26H236.308V23.2H231.14V22.288L235.78 14.8H237.252L232.82 21.92H236.308V18.8H237.588V21.92H239.14V23.2H237.588V26Z" fill="#C0C9D7"/>
<path d="M278.043 20.992L275.067 18.016L275.979 17.12L280.507 21.632L275.979 26.16L275.067 25.264L278.059 22.272H271.499V20.992H278.043Z" fill="#C0C9D7"/>
<path d="M16.4994 21.632L21.0274 17.12L21.9234 18.016L18.9474 20.992H25.5074V22.272H18.9314L21.9234 25.264L21.0274 26.16L16.4994 21.632Z" fill="#C0C9D7"/>
<path d="M142.236 27.082C142.236 26.844 142.327 26.6343 142.508 26.453C142.701 26.2717 142.933 26.181 143.205 26.181C143.443 26.181 143.653 26.2717 143.834 26.453C144.016 26.6343 144.106 26.844 144.106 27.082C144.106 27.354 144.021 27.5863 143.851 27.779C143.681 27.9603 143.466 28.051 143.205 28.051C142.933 28.051 142.701 27.9603 142.508 27.779C142.327 27.5863 142.236 27.354 142.236 27.082ZM147.565 27.082C147.565 26.844 147.656 26.6343 147.837 26.453C148.03 26.2717 148.262 26.181 148.534 26.181C148.772 26.181 148.982 26.2717 149.163 26.453C149.345 26.6343 149.435 26.844 149.435 27.082C149.435 27.354 149.35 27.5863 149.18 27.779C149.01 27.9603 148.795 28.051 148.534 28.051C148.262 28.051 148.03 27.9603 147.837 27.779C147.656 27.5863 147.565 27.354 147.565 27.082ZM152.894 27.082C152.894 26.844 152.985 26.6343 153.166 26.453C153.359 26.2717 153.591 26.181 153.863 26.181C154.101 26.181 154.311 26.2717 154.492 26.453C154.674 26.6343 154.764 26.844 154.764 27.082C154.764 27.354 154.679 27.5863 154.509 27.779C154.339 27.9603 154.124 28.051 153.863 28.051C153.591 28.051 153.359 27.9603 153.166 27.779C152.985 27.5863 152.894 27.354 152.894 27.082Z" fill="#C0C9D7"/>
</svg>
