<svg width="121" height="19" viewBox="0 0 121 19" fill="none" xmlns="http://www.w3.org/2000/svg">
<path opacity="0.5" d="M33.2632 4.9H34.4722V14H33.2632V10.334C32.5525 10.672 31.8072 10.841 31.0272 10.841C30.1432 10.841 29.4282 10.594 28.8822 10.1C28.3362 9.59733 28.0632 8.94733 28.0632 8.15V4.9H29.2722V8.072C29.2722 8.566 29.4282 8.96033 29.7402 9.255C30.0522 9.54967 30.4855 9.697 31.0402 9.697C31.8202 9.697 32.5612 9.528 33.2632 9.19V4.9ZM41.0233 7.5H41.9333V14H40.8153V9.437L37.2143 14H36.3043V7.5H37.4223V12.063L41.0233 7.5ZM48.4909 7.5V8.592H46.2809V14H45.1499V8.592H42.9269V7.5H48.4909ZM54.6101 7.5H55.7411V14H54.6101V12.882C54.0468 13.74 53.2278 14.169 52.1531 14.169C51.2431 14.169 50.4675 13.8397 49.8261 13.181C49.1848 12.5137 48.8641 11.7033 48.8641 10.75C48.8641 9.79667 49.1848 8.99067 49.8261 8.332C50.4675 7.66467 51.2431 7.331 52.1531 7.331C53.2278 7.331 54.0468 7.76 54.6101 8.618V7.5ZM52.2961 13.077C52.9548 13.077 53.5051 12.856 53.9471 12.414C54.3891 11.9633 54.6101 11.4087 54.6101 10.75C54.6101 10.0913 54.3891 9.541 53.9471 9.099C53.5051 8.64833 52.9548 8.423 52.2961 8.423C51.6461 8.423 51.1001 8.64833 50.6581 9.099C50.2161 9.541 49.9951 10.0913 49.9951 10.75C49.9951 11.4087 50.2161 11.9633 50.6581 12.414C51.1001 12.856 51.6461 13.077 52.2961 13.077ZM62.2907 7.5V8.592H60.0807V14H58.9497V8.592H56.7267V7.5H62.2907ZM66.0248 9.84C66.6748 9.84 67.2122 10.035 67.6368 10.425C68.0702 10.8063 68.2868 11.3047 68.2868 11.92C68.2868 12.5353 68.0702 13.038 67.6368 13.428C67.2122 13.8093 66.6748 14 66.0248 14H63.2818V7.5H64.4128V9.84H66.0248ZM66.0248 12.947C66.3455 12.947 66.6142 12.856 66.8308 12.674C67.0562 12.4833 67.1688 12.232 67.1688 11.92C67.1688 11.608 67.0562 11.3567 66.8308 11.166C66.6142 10.9753 66.3455 10.88 66.0248 10.88H64.4128V12.947H66.0248ZM70.2175 9.034C69.9835 9.034 69.7842 8.95167 69.6195 8.787C69.4549 8.62233 69.3725 8.423 69.3725 8.189C69.3725 7.955 69.4549 7.75567 69.6195 7.591C69.7842 7.42633 69.9835 7.344 70.2175 7.344C70.4602 7.344 70.6595 7.42633 70.8155 7.591C70.9802 7.75567 71.0625 7.955 71.0625 8.189C71.0625 8.423 70.9802 8.62233 70.8155 8.787C70.6595 8.95167 70.4602 9.034 70.2175 9.034ZM70.2175 14.143C69.9835 14.143 69.7842 14.0607 69.6195 13.896C69.4549 13.7313 69.3725 13.532 69.3725 13.298C69.3725 13.064 69.4549 12.8647 69.6195 12.7C69.7842 12.5353 69.9835 12.453 70.2175 12.453C70.4602 12.453 70.6595 12.5353 70.8155 12.7C70.9802 12.8647 71.0625 13.064 71.0625 13.298C71.0625 13.532 70.9802 13.7313 70.8155 13.896C70.6595 14.0607 70.4602 14.143 70.2175 14.143ZM80.3597 9.294C80.8017 9.51933 81.1483 9.82267 81.3997 10.204C81.651 10.5853 81.7767 11.0187 81.7767 11.504C81.7767 12.336 81.4863 12.9903 80.9057 13.467C80.325 13.935 79.5753 14.169 78.6567 14.169C77.7467 14.169 77.0013 13.935 76.4207 13.467C75.84 12.9903 75.5497 12.336 75.5497 11.504C75.5497 11.0187 75.6753 10.5853 75.9267 10.204C76.178 9.82267 76.5247 9.51933 76.9667 9.294C76.2213 8.826 75.8487 8.163 75.8487 7.305C75.8487 6.48167 76.1217 5.849 76.6677 5.407C77.2223 4.95633 77.8853 4.731 78.6567 4.731C79.4367 4.731 80.0997 4.95633 80.6457 5.407C81.2003 5.849 81.4777 6.48167 81.4777 7.305C81.4777 8.163 81.105 8.826 80.3597 9.294ZM78.6567 5.888C78.1973 5.888 77.8117 6.00933 77.4997 6.252C77.1963 6.49467 77.0447 6.85433 77.0447 7.331C77.0447 7.79033 77.2007 8.15 77.5127 8.41C77.8247 8.66133 78.206 8.787 78.6567 8.787C79.1073 8.787 79.4887 8.66133 79.8007 8.41C80.1127 8.15 80.2687 7.79033 80.2687 7.331C80.2687 6.85433 80.117 6.49467 79.8137 6.252C79.5103 6.00933 79.1247 5.888 78.6567 5.888ZM78.6567 13.012C79.2373 13.012 79.701 12.8777 80.0477 12.609C80.403 12.3317 80.5807 11.9373 80.5807 11.426C80.5807 10.9233 80.403 10.5377 80.0477 10.269C79.701 9.99167 79.2373 9.853 78.6567 9.853C78.0847 9.853 77.621 9.99167 77.2657 10.269C76.919 10.5377 76.7457 10.9233 76.7457 11.426C76.7457 11.9373 76.919 12.3317 77.2657 12.609C77.621 12.8777 78.0847 13.012 78.6567 13.012ZM92.8746 7.5V14H91.7696V9.281L89.7026 12.609H89.5596L87.4926 9.281V14H86.3746V7.5H87.5836L89.6246 10.789L91.6656 7.5H92.8746ZM99.3202 7.5H100.23V14H99.1122V9.437L95.5112 14H94.6012V7.5H95.7192V12.063L99.3202 7.5ZM106.45 7.5H107.581V14H106.45V11.283H103.083V14H101.952V7.5H103.083V10.204H106.45V7.5ZM113.839 7.5H115.048L112.396 14.403C112.119 15.1397 111.729 15.6987 111.226 16.08C110.724 16.47 110.152 16.6433 109.51 16.6V15.547C110.308 15.6077 110.893 15.1743 111.265 14.247L111.369 14.013L108.548 7.5H109.744L111.967 12.596L113.839 7.5ZM120.867 7.5V8.592H118.657V14H117.526V8.592H115.303V7.5H120.867Z" fill="#222222"/>
<path d="M9.44385 16.5259C13.3554 16.5259 16.5264 13.3549 16.5264 9.44336C16.5264 5.53179 13.3554 2.36084 9.44385 2.36084C5.53228 2.36084 2.36133 5.53179 2.36133 9.44336C2.36133 13.3549 5.53228 16.5259 9.44385 16.5259Z" stroke="#919191" stroke-miterlimit="10"/>
<path d="M9.44336 5.31189V9.44336H13.5748" stroke="#919191" stroke-linecap="round" stroke-linejoin="round"/>
</svg>
