<svg width="48" height="48" viewBox="0 0 48 48" fill="none" xmlns="http://www.w3.org/2000/svg">
<rect width="48" height="48" rx="24" fill="#EA4335"/>
<path d="M12.0075 24.0153C11.7677 17.8285 17.2988 12.1111 23.6199 12.0369C26.8416 11.7677 29.9759 12.9934 32.414 14.9926C31.4139 16.07 30.3963 17.1349 29.3094 18.1319C27.163 16.8543 24.5787 15.8807 22.0702 16.7454C18.0242 17.8741 15.5739 22.5546 17.0712 26.4326C18.3111 30.4828 23.3393 32.7055 27.28 31.0041C29.3205 30.2883 30.6658 28.4437 31.2561 26.4616C28.9176 26.416 26.5785 26.4445 24.2399 26.3812C24.2341 25.018 24.2282 23.66 24.2341 22.2968C28.134 22.2911 32.0397 22.2797 35.9455 22.3139C36.1853 25.654 35.6823 29.2285 33.4661 31.9093C30.4313 35.7359 24.8244 36.859 20.2632 35.3578C15.4225 33.8 11.9022 29.0221 12.0075 24.0153Z" fill="white"/>
</svg>
