<svg width="48" height="48" viewBox="0 0 48 48" fill="none" xmlns="http://www.w3.org/2000/svg">
<rect width="48" height="48" rx="24" fill="#5181B8"/>
<path fill-rule="evenodd" clip-rule="evenodd" d="M35.4264 18.0157C35.6003 17.4303 35.4264 17 34.5993 17H31.8642C31.1688 17 30.8484 17.3716 30.6745 17.7816C30.6745 17.7816 29.2836 21.2065 27.3132 23.4313C26.6757 24.0753 26.386 24.2799 26.0383 24.2799C25.8644 24.2799 25.6128 24.0753 25.6128 23.4899V18.0157C25.6128 17.313 25.411 17 24.8314 17H20.5335C20.099 17 19.8376 17.3261 19.8376 17.6351C19.8376 18.3013 20.8226 18.4548 20.9242 20.3282V24.3974C20.9242 25.2895 20.7648 25.4513 20.417 25.4513C19.4899 25.4513 17.2347 22.0108 15.8968 18.0743C15.6347 17.3091 15.3717 17 14.6727 17H11.9377C11.1563 17 11 17.3716 11 17.7816C11 18.5134 11.9274 22.1434 15.3174 26.9442C17.5777 30.2225 20.7617 32 23.6592 32C25.3979 32 25.6128 31.6053 25.6128 30.9253V28.4474C25.6128 27.6579 25.7775 27.5004 26.3278 27.5004C26.7338 27.5004 27.429 27.7053 29.0519 29.286C30.9062 31.1592 31.2118 32 32.255 32H34.99C35.7714 32 36.1621 31.6053 35.9367 30.8262C35.6901 30.0498 34.8048 28.9236 33.6299 27.5882C32.9924 26.827 32.0362 26.0073 31.7466 25.5976C31.3409 25.0706 31.4567 24.8365 31.7466 24.3684C31.7466 24.3684 35.0787 19.626 35.4264 18.0159V18.0157Z" fill="white"/>
</svg>
